<svg xmlns="http://www.w3.org/2000/svg"
     width="1024" height="1024" viewBox="0 0 1024 1024"
     role="img" aria-labelledby="title">
  <title id="title">GitPM repository and Git branch icon</title>
  <rect width="1024" height="1024" rx="220" fill="#C9D96F"/>
  <path fill="#18352A"
        d="M188 352
           C188 294 235 247 293 247
           H455
           L536 333
           H730
           C790 333 838 381 838 441
           V736
           C838 794 791 841 733 841
           H291
           C233 841 186 794 186 736
           Z"/>
  <rect x="265" y="472" width="494" height="304" rx="58" fill="#F4F5F2"/>
  <path d="M365 624 H548 C615 624 654 593 681 542"
        fill="none" stroke="#18352A" stroke-width="48"
        stroke-linecap="round" stroke-linejoin="round"/>
  <path d="M548 624 C612 624 631 675 653 704"
        fill="none" stroke="#18352A" stroke-width="48"
        stroke-linecap="round" stroke-linejoin="round"/>
  <circle cx="350" cy="624" r="52" fill="#18352A"/>
  <circle cx="702" cy="512" r="52" fill="#18352A"/>
  <circle cx="684" cy="724" r="52" fill="#18352A"/>
</svg>
